<svg xmlns="http://www.w3.org/2000/svg" viewBox="0 0 29.29 36.24"><defs><style>.cls-1{fill:#fff;}</style></defs><title>资源 1</title><g id="图层_2" data-name="图层 2"><g id="图层_1-2" data-name="图层 1"><path class="cls-1" d="M29.1,28.12l-2.34-5.31V15.23A12.29,12.29,0,0,0,18.94,3.91,4.26,4.26,0,0,0,14.65,0a4.32,4.32,0,0,0-4.3,3.91A12.16,12.16,0,0,0,2.54,15.23v7.58L.19,28.12a2.25,2.25,0,0,0,.16,2.11,2.18,2.18,0,0,0,1.87,1H27.07a2.18,2.18,0,0,0,1.87-1A2.27,2.27,0,0,0,29.1,28.12ZM14.65,36.24a3.87,3.87,0,0,0,3.9-3.91H10.74A3.87,3.87,0,0,0,14.65,36.24Z"/></g></g></svg>