<svg xmlns="http://www.w3.org/2000/svg" viewBox="0 0 1662.47 306.77"><defs><style>.cls-1{fill:#fff;}.cls-2{fill:#c62f2f;}.cls-3{isolation:isolate;}</style></defs><title>资源 1</title><g id="图层_2" data-name="图层 2"><g id="图层_1-2" data-name="图层 1"><g id="图层_1-2-2" data-name="图层 1-2"><g id="图层_1-2-2-2" data-name="图层 1-2-2"><path class="cls-1" d="M373.87,251.68H48.13c-26.58,0-48.13-18-48.13-40.27V40.27C0,18,21.55,0,48.13,0H373.87C400.45,0,422,18,422,40.27V211.41C422,233.65,400.45,251.68,373.87,251.68Z"/><polygon class="cls-1" points="332.65 306.77 253.97 250.68 314.28 250.68 332.65 306.77"/><polygon class="cls-2" points="115.81 89.73 129 89.45 129 121.89 146.66 121.75 146.66 89.73 160 89.45 160 164.45 147 164.45 147 133.45 129 133.45 129 164.45 115.81 164.45 115.81 89.73"/><path class="cls-2" d="M213.61,88.85h0a22.9,22.9,0,0,1,22.9,22.9v30.41a22.9,22.9,0,0,1-22.9,22.9h0a22.9,22.9,0,0,1-22.9-22.9V111.75A22.9,22.9,0,0,1,213.61,88.85Z"/><rect class="cls-1" x="203.63" y="101.47" width="19.87" height="51.67" rx="9.42"/><polygon class="cls-2" points="267 89.95 311 89.95 311 102.95 296 102.95 296 163.95 283 163.95 283 102.95 267 102.95 267 89.95"/></g><g class="cls-3"><path class="cls-1" d="M621.17,56.18c8.42,1.71,12.93,5.45,13.54,11.17l-46,16.33q0,4.3,1.8,39.53h.89q16,0,24-25.78,28.88,17.19,28.88,29.21l-6.32,4.3h-2.71q-1.81,0-15.34-13.75-2.7,0-32.26,35.24h-6.26L576.05,149l1.81-12-2.71-35.24L572.44,88Q572.44,77.66,621.17,56.18Zm47.82,0h33q20.75,0,20.75,10.31L702,146.41h-6.32q-10.83-2.58-16.24-12.89v-4.3q14.8,0,20.23-33.51,4.51-16.32,4.52-24.92l-5.42-2.58h-9.92q0,29.22-45.4,78.2V149q.88,2.58,2.7,2.58a105,105,0,0,0,21-1.72q52.39,1.72,56.91,13.75-22.57,68.76-37,68.75a42.84,42.84,0,0,0-19.91-5.16q-10.95,0-75.12,7.74,0-2.58-1.8-2.58A70.24,70.24,0,0,1,588.4,210q0-14.59-4.51-51.56,53.24,0,79.59-59.3,9.12-6.86,9.12-21.48V70.79q-5.42,0-17.14-2.58V57.89ZM601.32,167v5.15q0,11.17,8.12,12.89L641,177.35v-8.6q0-3.42-7.22-5.15Q629.29,163.6,601.32,167Zm8.12,31.79v12c0,1.72,1.2,3.16,3.61,4.3h24.36q3.6,0,3.61-14.61v-3.44H618.46Zm48.73-33.46v8.84a4.23,4.23,0,0,0,4.51,3.53q.89,0,29.78-2.65l4.51,6.19V183q0,8.86-37,11.5a29.18,29.18,0,0,0-2.71,12q0,6,31.59,6.87,5.42-6.87,18-43.65-8.11-6.18-26.17-6.19h-18C659.66,163.6,658.17,164.19,658.17,165.37Z"/><path class="cls-1" d="M857.58,54.46Q872.93,56.19,882,71.64q29.77-1.71,42.41-1.71,23.45,3.43,23.46,10.31c0,2.87-3,5.45-9,7.73l-7.21-1.72H899.09q-25.27.87-83,7.74a60,60,0,0,0-9-.86L805.25,82h9q40.61-3.43,47.83-7.74L854,61.33ZM900,160.16q27.07,0,40.61,18.91Q921.66,195.41,918,201.41v.86q0,7.74,7.22,15.47v3.44l-3.61,5.15q-25.27-2.58-37-2.58H858.49c-7.83.57-11.73,2.58-11.73,6l-2.71,6h-4.51q-10.83-.87-17.15-66.18Q888.25,160.17,900,160.16Zm-8.12-57.58h14.44q5.41.83,5.41,7.33,0,5.7-62.26,8.14a59,59,0,0,1-12.63-4.89v-6.51Q847.66,106.65,891.87,102.58Zm7.22,26.64,12.63,1.72v6q0,6-5.41,6-6.33,0-56.85,5.16l-11.73-2.58V136.1Q875.64,129.23,899.09,129.22Zm-57.75,51.57q0,20.63,4.51,29.21,53.24,0,55-7.73l9.92-18.91v-5.15q0-3.44-8.12-6Q846.73,178.22,841.34,180.79Z"/><path class="cls-1" d="M1051.59,48.44q19.83,0,19.85,24.92l-1.81,18q19,2.58,18.95,7.73V100q0,6.9-18.95,10.32l10.83,7.73q-10.83,10.32-10.83,16.33V159.3q9.93,0,21.66-18.91V137q0-2.58-3.61-15.47v-6l11.73,4.3q4.52-2.58,4.51-11.17v-1.72q0-6-6.31-12.89V86.25q13.53,0,17.14-35.23h3.61q5.42,2.58,5.42,6L1122,78.52q31.58,2.58,31.58,12.89-9,12-12.63,51.56,1.8,14.63,15.34,14.61h14.44q24.36,0,24.36-14.61c0-2.28.9-3.43,2.71-3.43q8.12,0,12.63,33.51l-13.53,1.72h-35.2q-37-7.74-37-33.52L1131,96.57h-9q-4.53,0-8.12,30.07,2.7,0,6.32,7.74V143h-16.25l-39.7,37.82q-7.23,0-34.29-15.47v-7.74h3.61q14.43,3.45,19,3.44l.9-1.72V143c0-1.14-.9-1.72-2.7-1.72H1048q-9.95,6-29.78,15.47c-3.61-1.72-6.63-2.58-9-2.58V149q2.7-6.87,38.8-24.06l5.41-7.74v-2.58q0-4.29-28.87-6v-6q15.33-5.16,20.75-5.15h8.12l4.51-35.24-6.31-8.59ZM1032,185.08q2.89,0,8.74,6.88,0,15.47-13.54,32.65-10.82-3.44-10.82-8.59,9.92-12.89,11.73-30.94Zm43.93,0q15.33,0,19,33.52c-1.8,0-2.71.86-2.71,2.58q-17.14-4.32-17.14-33.52C1075.64,187.66,1076,186.8,1076,185.08Zm42.41,2.58h8.12q14.43,10.32,14.44,24.06l-5.41,2.58h-2.71q-4.53,0-14.44-14.61Zm50.53,3.44h3.61q16.24,6,27.07,23.2V222h-8.12q-7.23-1.74-22.56-22.35Z"/><path class="cls-1" d="M1265.44,104.3q19-5.16,16.25,20.63v22.34h1.8l14.44-12.89h4.51v6q-18.95,33.53-24.36,61.88h-3.61q-2.71,0-11.73-12.89,6.3,0,4.51-70.47c-1.21-.56-7.53-.86-19-.86V106Zm11.73-33.51q17.13,2.56,17.15,9.45v5.15l-7.22,5.16-16.24-9.45V76.8Q1273.56,70.8,1277.17,70.79ZM1353,83.68l13.54-.86.9,12V127.5q3.58,0,21.65-34.37l7.22-4.3,4.51,12.89q-3.61,13.75-22.55,28.36v1.72q1.79,0,34.29-2.58,14.42.87,14.43,6.88v7.73q-4.51,0-21.65-.86h-1.81q-36.11,2.58-36.09,10.32V167q0,15.47-.9,27.5c.59,5.73.9,10.6.9,14.6q-8.13,30.08-16.24,30.08V154.14l-2.71-4.29q-28,.85-36.09,6.87a16.85,16.85,0,0,0-7.22-1.72V143.83q22.55-3.42,22.56-7.73l-3.61-37.81,5.41-2.58q7.21,0,14.44,38.67l7.22-.86c.59-3.44,1.19-8.3,1.8-14.61Zm24.36-22.35q11.72,4.32,11.73,8.6V76.8q-17.14,0-49.62,3.44a35.46,35.46,0,0,0-8.13-.86V68.21Q1362,66.5,1377.33,61.33Z"/><path class="cls-1" d="M1512.15,64.77q8.65,0,8.66,16.33V112q0,1.72,17.14,3.43v9.46q-18.95,0-19,18l16.24,16.33V167l-14.43-1.72q-5.41,67.89-14.44,67.89h-2.71l-4.51-3.44q3.6-19.78,3.61-53.28l-2.71-1.72h-1.8l-18,17.19H1473V186.8q28.88-33.51,29.78-51.56c-1.8,0-2.71-.57-2.71-1.72l-12.63,1.72h-4.51c-3.61,0-5.42-2-5.42-6V127.5q0-6,25.38-10.31a14.63,14.63,0,0,0,3.5-9.45V69.93C1507,66.49,1508.94,64.77,1512.15,64.77Zm64.6-7.73h6.32q15.33,12.88,22.56,12.89l16.24-1.72,5.41,6.87V82q-38.8,6-48.72,6,3.59,19.78,7.22,19.77,9.92,0,21.65-21.49h1.81c4.8.58,7.22,2.88,7.22,6.88l-6.32,9.45v1.72h17.14q9.93,0,24.37-4.3,10.83,4.32,10.82,7.74V112q-9,11.17-28,21.48l2.71-13.75v-2.58h-9.93q-69.49,8.59-69.48,10.31,1.8,18.06,1.81,19.77,25.25,0,25.26-7.73l-.9-11.18h6.32l15.34,12q19.83-4.29,31.58-4.29H1648q14.42.85,14.43,7.73t-55.94,12a27.94,27.94,0,0,0-3.61,12.89h5.41l21.66-2.57q10.83,7.73,10.83,13.75-7.23,41.25-30.68,61.87-13.53,0-22.56-12.89c0-4.59,1.8-6.87,5.41-6.87a116.56,116.56,0,0,0,14.44,1.71q11.71-11.17,16.24-37.81v-2.58q0-1.71-22.55-.86-9.94,1.74-27.08,20.63-28.74,25.78-38.54,25.78v-3.44q43.05-40.38,53-63.59v-4.3h-.9q-10.83,0-37,8.6h-6.31q0-5.16-2.71-5.16,0-48.12,18-48.13h8.12v-1.71q0-25.79-11.63-25.79V81.1q0-5.16,23.36-9.46l.9-1.71A27.85,27.85,0,0,1,1576.75,57Z"/></g></g></g></g></svg>