<?xml version="1.0" encoding="utf-8"?>
<!-- Generator: Adobe Illustrator 23.0.0, SVG Export Plug-In . SVG Version: 6.00 Build 0)  -->
<svg version="1.1" id="图层_1" xmlns="http://www.w3.org/2000/svg" xmlns:xlink="http://www.w3.org/1999/xlink" x="0px" y="0px"
	 viewBox="0 0 1700.9 321.2" style="enable-background:new 0 0 1700.9 321.2;" xml:space="preserve">
<style type="text/css">
	.st0{fill:#FFFFFF;}
	.st1{fill:#C62F2F;}
	.st2{font-family:'YRDZST-Medium';}
	.st3{font-size:220px;}
</style>
<title>资源 2</title>
<g>
	<g id="图层_1-2">
		<path class="st0" d="M373.9,251.7H48.1c-26.6,0-48.1-18-48.1-40.3V40.3C0,18,21.5,0,48.1,0h325.7C400.5,0,422,18,422,40.3v171.1
			C422,233.6,400.5,251.7,373.9,251.7z"/>
		<polygon class="st0" points="332.6,306.8 254,250.7 314.3,250.7 		"/>
		<polygon class="st1" points="115.8,89.7 129,89.4 129,121.9 146.7,121.8 146.7,89.7 160,89.4 160,164.4 147,164.4 147,133.4 
			129,133.4 129,164.4 115.8,164.4 		"/>
		<path class="st1" d="M213.6,88.8L213.6,88.8c12.6,0,22.9,10.3,22.9,22.9v30.4c0,12.6-10.3,22.9-22.9,22.9h0
			c-12.6,0-22.9-10.3-22.9-22.9v-30.4C190.7,99.1,201,88.8,213.6,88.8z"/>
		<path class="st0" d="M213.1,101.5h1c5.2,0,9.4,4.2,9.4,9.4v32.8c0,5.2-4.2,9.4-9.4,9.4h-1c-5.2,0-9.4-4.2-9.4-9.4v-32.8
			C203.6,105.7,207.8,101.5,213.1,101.5z"/>
		<polygon class="st1" points="267,89.9 311,89.9 311,102.9 296,102.9 296,163.9 283,163.9 283,102.9 267,102.9 		"/>
	</g>
</g>
<text transform="matrix(1.05 0 0 1 532.7418 215.1566)" class="st0 st2 st3">留言热评榜</text>
</svg>
